<?xml version="1.0" standalone="no"?>
<!DOCTYPE svg PUBLIC "-//W3C//DTD SVG 20010904//EN"
 "http://www.w3.org/TR/2001/REC-SVG-20010904/DTD/svg10.dtd">
<svg version="1.0" xmlns="http://www.w3.org/2000/svg"
 width="572.000000pt" height="405.000000pt" viewBox="0 0 572.000000 405.000000"
 preserveAspectRatio="xMidYMid meet">
<metadata>
Created by potrace 1.16, written by Peter Selinger 2001-2019
</metadata>
<g transform="translate(0.000000,405.000000) scale(0.100000,-0.100000)"
fill="#000000" stroke="none">
<path d="M2096 3013 c-12 -13 -5 -31 11 -29 11 1 19 -11 25 -34 6 -19 16 -43
25 -52 11 -12 12 -21 4 -36 -8 -15 -7 -23 4 -32 8 -7 15 -23 15 -36 0 -13 6
-24 13 -24 10 0 14 -19 15 -70 1 -63 -1 -73 -23 -92 -19 -16 -22 -25 -14 -35
6 -7 9 -20 5 -28 -3 -8 0 -15 7 -16 7 -1 2 -4 -11 -7 -13 -4 -23 -10 -23 -14
1 -5 1 -17 1 -28 0 -13 5 -18 16 -13 11 4 12 9 5 16 -8 8 -2 15 20 24 19 8 28
17 23 24 -5 8 -3 9 5 5 16 -10 43 15 83 77 28 44 32 59 32 117 0 74 -17 119
-63 165 -79 79 -159 133 -175 118z"/>
<path d="M3725 2599 c-179 -23 -277 -148 -221 -280 44 -105 167 -148 422 -149
99 0 124 3 135 16 9 11 10 20 2 32 -8 14 -35 18 -169 22 -144 5 -163 7 -197
29 -53 32 -71 72 -64 139 7 65 37 103 96 121 21 6 101 11 178 11 95 0 143 4
151 12 16 16 15 23 -4 42 -12 13 -39 16 -142 15 -70 -1 -154 -5 -187 -10z"/>
<path d="M4149 2603 c-10 -2 -19 -12 -21 -21 -9 -39 1 -395 12 -402 18 -11
368 -11 439 1 77 12 118 33 147 77 27 40 21 77 -19 119 l-30 32 22 27 c27 35
28 87 0 115 -47 47 -80 53 -314 55 -121 1 -227 0 -236 -3z m393 -80 c24 -21
23 -46 -3 -69 -17 -15 -40 -20 -115 -22 -78 -3 -96 -7 -104 -22 -16 -29 8 -38
119 -42 97 -3 105 -5 126 -30 30 -35 23 -62 -20 -82 -48 -23 -280 -23 -289 0
-8 21 -8 269 1 277 3 4 65 7 136 7 107 0 134 -3 149 -17z"/>
<path d="M5065 2603 c-95 -17 -129 -28 -169 -54 -114 -76 -123 -207 -20 -298
66 -58 136 -75 324 -77 86 -2 162 1 169 5 7 5 11 19 9 32 -3 24 -4 24 -163 29
-173 6 -204 15 -244 66 -33 41 -30 132 6 174 14 17 38 37 52 43 14 6 98 14
186 17 l160 5 0 30 0 30 -145 1 c-80 1 -154 -1 -165 -3z"/>
<path d="M1040 2298 c0 -13 4 -28 8 -34 9 -14 94 -30 175 -33 60 -2 65 0 71
21 16 60 11 66 -51 63 -32 -2 -71 -9 -88 -15 -57 -23 -82 -23 -88 0 -7 27 -27
26 -27 -2z"/>
<path d="M3190 1972 c-61 -4 -80 -14 -80 -46 0 -12 -7 -32 -16 -44 -15 -21
-21 -22 -169 -22 -89 0 -156 -4 -160 -10 -5 -9 -22 -85 -72 -340 -22 -111 -35
-142 -84 -195 -67 -73 -38 -101 56 -55 55 27 118 89 144 143 12 24 28 77 36
118 42 207 53 257 59 268 5 8 96 11 316 11 304 0 309 0 321 21 6 12 7 25 2 30
-4 4 -67 10 -138 11 l-130 3 2 25 c1 14 3 36 5 49 4 29 -18 37 -92 33z"/>
<path d="M4173 1973 c-61 -4 -61 -4 -102 -58 l-42 -55 -69 0 c-63 0 -70 -2
-70 -20 0 -17 7 -20 50 -20 59 0 64 -13 24 -65 -23 -31 -31 -34 -82 -37 -49
-3 -57 -6 -57 -23 0 -14 8 -21 25 -23 40 -6 43 -17 15 -61 -46 -68 -40 -71
154 -71 104 0 172 -4 176 -10 8 -13 -83 -120 -101 -120 -8 0 -23 9 -34 20 -17
17 -33 20 -100 20 -59 0 -80 -3 -80 -13 0 -7 37 -56 83 -108 l83 -94 87 -3
c101 -3 107 4 52 58 -19 19 -35 39 -35 46 0 6 20 17 44 23 45 11 76 40 144
135 33 47 39 70 22 81 -6 4 -81 8 -168 10 -86 3 -160 5 -164 5 -17 0 -7 27 21
58 l30 32 166 0 c140 0 167 2 172 15 3 9 3 19 -1 22 -3 3 -71 5 -151 4 -139
-2 -145 -1 -145 18 0 11 12 33 26 50 l25 30 132 3 c124 3 132 4 132 23 0 21 2
21 -187 24 -34 1 -36 18 -7 55 19 24 20 59 2 54 -4 -1 -36 -3 -70 -5z"/>
<path d="M4639 1959 c-9 -9 -20 -40 -24 -67 -7 -54 -25 -78 -50 -68 -21 8 -45
-3 -45 -20 0 -8 14 -17 30 -21 17 -3 33 -9 36 -14 4 -8 -40 -199 -48 -202 -67
-34 -78 -43 -78 -59 0 -16 5 -18 35 -12 42 8 43 1 20 -103 -24 -104 -22 -101
-66 -108 -43 -7 -59 -26 -40 -49 8 -9 33 -12 86 -11 110 4 131 28 161 188 26
139 32 155 65 172 21 12 43 14 75 9 27 -4 55 -2 73 5 34 15 69 60 78 101 4 24
10 30 27 28 22 -3 23 -8 10 -95 l-6 -43 55 0 c63 0 72 8 80 68 6 48 21 72 47
72 15 0 17 -7 13 -42 -4 -36 -1 -47 20 -66 32 -30 104 -42 113 -19 9 25 -32
108 -58 115 -16 5 -2 9 42 12 49 4 65 9 65 20 0 11 -17 16 -67 21 -63 5 -107
19 -62 19 23 0 79 39 101 70 12 17 12 24 2 36 -13 16 -14 16 24 32 15 6 27 19
27 28 0 13 -12 15 -87 10 -49 -4 -171 -9 -273 -12 -102 -3 -189 -9 -194 -14
-6 -6 -3 -17 7 -28 9 -10 17 -29 17 -41 0 -33 52 -81 87 -81 49 0 56 18 28 67
l-26 42 25 7 c48 12 61 2 64 -46 2 -35 -2 -50 -18 -68 -20 -21 -29 -23 -113
-20 -89 3 -92 4 -90 26 2 18 -3 24 -28 29 -31 6 -31 6 -24 52 14 89 16 85 -45
91 -43 5 -58 2 -71 -11z m148 -203 c-2 -18 4 -21 36 -24 20 -2 37 -6 37 -9 0
-9 -52 -76 -69 -89 -9 -7 -24 -9 -36 -4 -11 4 -25 5 -32 3 -6 -2 -13 0 -16 4
-9 14 20 135 33 143 22 13 50 -1 47 -24z"/>
<path d="M2153 1963 c-7 -2 -18 -23 -24 -46 -18 -68 -17 -68 -172 -66 -76 0
-143 -3 -147 -8 -8 -7 -29 -97 -78 -329 -11 -51 -17 -97 -13 -102 4 -7 60 -12
139 -13 73 -2 138 -6 144 -10 10 -6 9 -21 0 -67 -22 -105 -24 -102 67 -102
l79 0 11 33 c6 17 13 52 17 77 4 25 11 51 17 58 6 8 44 12 123 12 62 0 124 4
138 10 48 18 50 25 122 358 9 41 13 76 10 79 -3 3 -65 5 -138 4 -73 -1 -139 3
-147 8 -12 8 -13 16 -2 50 6 23 9 46 6 51 -6 10 -129 13 -152 3z m-66 -220
c-9 -82 -56 -266 -69 -275 -7 -4 -39 -8 -71 -8 -69 0 -74 8 -58 83 6 29 18 86
26 127 25 123 23 120 106 120 l72 0 -6 -47z m333 27 c0 -23 -58 -289 -66 -302
-3 -4 -34 -8 -68 -8 -76 0 -90 11 -76 60 5 19 19 82 31 140 12 58 26 111 31
118 7 7 36 12 79 12 62 0 69 -2 69 -20z"/>
<path d="M3758 1953 c-14 -17 -33 -49 -96 -163 -13 -25 -40 -56 -59 -68 -35
-24 -36 -42 -2 -42 37 0 36 -11 -26 -300 -15 -69 -29 -128 -31 -132 -10 -16
39 -23 128 -19 21 1 26 19 73 261 20 102 41 203 47 225 14 54 91 210 109 221
5 3 9 12 9 20 0 22 -132 20 -152 -3z"/>
<path d="M1024 1900 c-44 -21 -42 -16 -35 -97 1 -7 7 -13 15 -13 19 0 28 -27
13 -42 -22 -23 -17 -48 9 -48 25 0 60 51 50 75 -2 7 -2 16 1 19 4 3 8 23 10
44 2 20 5 47 8 60 7 28 -14 29 -71 2z"/>
<path d="M4761 1543 c-8 -17 -32 -120 -51 -218 -4 -22 -11 -48 -14 -57 -5 -11
-1 -20 11 -26 22 -12 493 -15 512 -3 7 5 24 60 37 122 13 63 26 124 29 136 3
15 -2 30 -15 43 -19 19 -33 20 -260 20 -218 0 -240 -2 -249 -17z"/>
</g>
</svg>
