<?xml version="1.0" standalone="no"?>
<!DOCTYPE svg PUBLIC "-//W3C//DTD SVG 20010904//EN"
 "http://www.w3.org/TR/2001/REC-SVG-20010904/DTD/svg10.dtd">
<svg version="1.0" xmlns="http://www.w3.org/2000/svg"
 width="608.000000pt" height="368.000000pt" viewBox="0 0 608.000000 368.000000"
 preserveAspectRatio="xMidYMid meet">

<g transform="translate(0.000000,368.000000) scale(0.100000,-0.100000)"
fill="#000000" stroke="none">
<path d="M518 2273 c-236 -235 -428 -430 -428 -433 0 -3 191 -196 425 -430
l425 -425 102 101 c303 297 468 462 468 465 0 2 -127 4 -282 4 l-283 0 -3 287
-2 288 285 2 285 3 -282 282 -283 283 -427 -427z"/>
<path d="M2470 2465 l0 -25 -172 -2 -173 -3 -3 -32 -3 -33 173 -2 c155 -3 173
-5 176 -20 3 -17 -9 -18 -147 -18 l-151 0 0 -35 0 -35 355 0 355 0 0 35 0 35
-155 0 c-148 0 -155 1 -155 20 0 19 7 20 180 20 l180 0 0 35 0 35 -180 0 -180
0 0 25 c0 23 -3 25 -50 25 -47 0 -50 -2 -50 -25z"/>
<path d="M3484 2456 l7 -36 -191 0 -191 0 3 -87 3 -86 40 0 40 0 3 51 3 52
319 0 319 0 3 -52 3 -51 40 0 40 0 0 84 0 84 -165 3 -166 2 -9 33 c-9 30 -13
32 -59 35 l-48 3 6 -35z"/>
<path d="M4260 2456 l0 -35 -77 -3 -78 -3 -3 -32 -3 -33 80 0 81 0 0 -130 0
-130 -95 0 -95 0 0 -35 0 -35 102 0 c100 0 101 0 83 -20 -29 -32 -106 -77
-163 -95 -57 -19 -57 -26 0 -66 l28 -21 65 36 c35 20 67 41 70 46 12 20 25 9
25 -20 l0 -30 95 0 95 0 0 -40 0 -40 -182 -2 -183 -3 0 -30 0 -30 398 -3 397
-2 0 35 0 35 -172 2 -172 3 0 35 0 35 87 3 c84 3 87 4 87 26 0 23 2 22 90 -22
l91 -45 34 33 c19 19 35 37 35 41 0 4 -17 10 -37 14 -53 9 -137 49 -186 87
l-41 33 119 5 120 5 0 30 0 30 -87 3 -88 3 0 129 0 130 80 0 80 0 0 35 0 35
-80 0 -80 0 0 36 0 35 -42 -3 c-42 -3 -43 -4 -40 -35 l4 -33 -176 0 -175 0 -3
33 c-3 30 -6 32 -45 35 l-43 3 0 -35z m438 -133 l3 -23 -175 0 -176 0 0 25 0
25 173 -2 c170 -3 172 -3 175 -25z m-3 -103 l0 -25 -172 -3 -173 -2 0 30 0 30
173 -2 172 -3 0 -25z m3 -107 l3 -23 -175 0 -176 0 0 25 0 25 173 -2 c170 -3
172 -3 175 -25z m-38 -138 c19 -25 37 -45 42 -45 4 0 8 -4 8 -10 0 -6 -32 -10
-75 -10 l-75 0 0 45 0 45 -45 0 -45 0 0 -40 0 -40 -92 0 -92 0 49 50 49 50
121 0 121 0 34 -45z"/>
<path d="M5432 2437 c-45 -79 -128 -150 -246 -207 -55 -28 -107 -50 -115 -50
-18 0 0 -22 41 -51 l28 -20 57 30 c49 27 58 29 66 16 6 -12 29 -15 107 -15
l100 0 0 -50 0 -50 -133 0 c-74 0 -136 -2 -139 -5 -2 -3 -3 -18 0 -35 l4 -30
134 0 134 0 0 -100 0 -100 -180 0 -180 0 0 -35 0 -35 415 0 415 0 0 35 0 34
-120 3 -120 3 46 69 c35 51 43 71 33 76 -14 9 -80 23 -84 18 -1 -2 -16 -39
-33 -83 -29 -78 -31 -80 -66 -83 l-36 -3 0 100 0 101 141 0 140 0 -3 33 -3 32
-137 3 -138 3 0 49 0 49 113 3 c108 3 112 4 115 26 4 27 2 27 60 -2 83 -41 88
-41 116 1 14 21 26 40 26 44 0 3 -33 14 -72 23 -159 38 -329 150 -345 227 -5
28 -8 29 -58 29 l-53 0 -30 -53z m159 -110 c41 -39 88 -82 104 -94 l30 -22
-198 0 -198 -1 93 93 c51 51 93 94 94 95 0 1 34 -31 75 -71z"/>
<path d="M3544 2232 c0 -42 -4 -103 -8 -134 l-7 -58 -217 -2 -217 -3 -3 -32
-3 -33 205 0 c113 0 206 -4 206 -8 0 -4 -17 -24 -37 -44 -59 -58 -184 -107
-315 -124 -26 -4 -48 -9 -48 -13 1 -3 16 -23 34 -44 l34 -37 83 26 c175 55
258 106 315 191 l35 53 170 0 169 0 0 35 0 35 -166 0 c-144 0 -165 2 -160 15
3 8 8 69 12 135 l7 120 -44 0 -44 0 -1 -78z"/>
<path d="M3301 2271 l-21 -29 75 -46 c42 -25 79 -46 84 -46 4 0 18 11 31 25
16 17 21 28 13 36 -14 14 -143 89 -153 89 -5 0 -18 -13 -29 -29z"/>
<path d="M2210 2150 l0 -80 48 0 c36 0 43 -3 32 -11 -11 -8 -12 -12 -2 -16 36
-15 -1 -23 -103 -23 l-115 0 0 -35 0 -35 91 0 c79 0 90 -2 85 -16 -3 -9 -6
-18 -6 -20 0 -2 -35 -4 -79 -4 -75 0 -78 -1 -77 -22 1 -21 7 -23 71 -28 l70
-5 -42 -42 c-23 -22 -56 -44 -72 -48 -17 -4 -31 -10 -31 -13 1 -4 21 -17 46
-28 l45 -21 38 31 c21 17 53 52 71 79 l33 47 60 0 59 0 -7 -27 c-10 -41 -29
-56 -80 -63 l-45 -5 22 -32 c19 -27 28 -31 53 -26 91 16 123 57 124 156 l1 47
-86 0 c-74 0 -85 2 -80 16 3 9 6 18 6 20 0 2 146 4 325 4 l325 0 0 35 0 35
-121 0 c-105 0 -120 2 -109 15 6 8 9 19 5 25 -4 6 10 10 40 10 l46 0 -3 78 -3
77 -317 3 -318 2 0 -80z m550 0 l0 -30 -230 0 c-196 0 -231 2 -236 15 -4 8 -4
22 0 30 5 13 40 15 236 15 l230 0 0 -30z m-102 -102 c-14 -21 -24 -23 -130
-26 -114 -3 -116 -2 -132 23 l-16 25 146 0 146 0 -14 -22z"/>
<path d="M3221 2164 c-12 -14 -21 -27 -19 -29 2 -2 36 -22 77 -45 l74 -42 29
30 30 30 -78 41 c-44 22 -82 41 -85 41 -3 0 -16 -12 -28 -26z"/>
<path d="M5283 1934 c-18 -8 -33 -17 -33 -20 0 -4 16 -31 35 -60 l35 -52 40
15 c26 11 39 21 36 30 -7 18 -70 102 -76 102 -3 0 -20 -7 -37 -15z"/>
<path d="M2570 1805 l0 -105 45 0 c38 0 45 3 45 20 0 18 7 20 85 20 78 0 85
-2 85 -20 0 -17 7 -20 45 -20 l45 0 0 105 0 105 -175 0 -175 0 0 -105z m260
20 l0 -35 -85 0 -85 0 0 35 0 35 85 0 85 0 0 -35z"/>
<path d="M3602 1887 c-12 -13 -22 -27 -22 -33 0 -5 63 -42 140 -81 l139 -72
31 37 31 37 -138 67 c-76 37 -143 67 -149 67 -6 1 -20 -9 -32 -22z"/>
</g>
</svg>
